<svg width="40" height="37" viewBox="0 0 40 37" fill="none" xmlns="http://www.w3.org/2000/svg">
<path d="M1.97656 0.5625L17.4589 12.2645L14.7138 5.31544L1.97656 0.5625Z" fill="#E4761B" stroke="#E4761B" stroke-width="0.3125" stroke-linecap="round" stroke-linejoin="round"/>
<path d="M32.3932 27.4336L28.2363 33.8022L37.1304 36.2493L39.6873 27.5748L32.3932 27.4336Z" fill="#E4761B" stroke="#E4761B" stroke-width="0.3125" stroke-linecap="round" stroke-linejoin="round"/>
<path d="M0.330078 27.5748L2.87125 36.2493L11.7654 33.8022L7.60851 27.4336L0.330078 27.5748Z" fill="#E4761B" stroke="#E4761B" stroke-width="0.3125" stroke-linecap="round" stroke-linejoin="round"/>
<path d="M11.2636 16.6732L8.78516 20.4223L17.6165 20.8144L17.3028 11.3242L11.2636 16.6732Z" fill="#E4761B" stroke="#E4761B" stroke-width="0.3125" stroke-linecap="round" stroke-linejoin="round"/>
<path d="M28.722 16.6717L22.6043 11.2129L22.4004 20.8129L31.2161 20.4207L28.722 16.6717Z" fill="#E4761B" stroke="#E4761B" stroke-width="0.3125" stroke-linecap="round" stroke-linejoin="round"/>
<path d="M11.7656 33.8014L17.0676 31.2132L12.4872 27.6367L11.7656 33.8014Z" fill="#E4761B" stroke="#E4761B" stroke-width="0.3125" stroke-linecap="round" stroke-linejoin="round"/>
<path d="M22.918 31.2132L28.2356 33.8014L27.4984 27.6367L22.918 31.2132Z" fill="#E4761B" stroke="#E4761B" stroke-width="0.3125" stroke-linecap="round" stroke-linejoin="round"/>
</svg>
